<?xml version="1.0" encoding="utf-8"?>
<!-- Generated by IcoMoon.io -->
<!DOCTYPE svg PUBLIC "-//W3C//DTD SVG 1.1//EN" "http://www.w3.org/Graphics/SVG/1.1/DTD/svg11.dtd">
<svg version="1.1" xmlns="http://www.w3.org/2000/svg" xmlns:xlink="http://www.w3.org/1999/xlink" width="963" height="1024" viewBox="0 0 963 1024">
	<path fill="#454f5c" d="M0.037 113.957q-0.512-11.264 6.144-20.992t13.824-16.896 24.064-15.872 27.648-13.312 33.792-14.336 35.328-14.848q55.296-22.528 99.328-16.384t55.296 35.84q25.6 68.608 104.96 327.168t118.272 370.176q274.432-90.112 333.824-107.52 16.384-6.144 38.4-4.096t33.28 23.552q23.552 48.128 33.28 100.864t0.512 76.288q-19.456 15.36-60.928 32.768t-77.312 29.696-91.648 29.696-75.264 23.552q-10.24 3.072-38.912 13.312t-54.272 18.944-59.392 19.456-62.464 17.92-55.296 11.776-45.568 3.584-26.112-9.216q-18.432-18.432-32.768-53.248t-29.696-89.088-19.456-67.584q-43.008-128-115.712-346.624t-106.496-320q-6.144-13.312-6.656-24.576z" />
</svg>
